<svg xmlns="http://www.w3.org/2000/svg" viewBox="5 1 32 38">
<path d="M10.4748,25.67632s4.33944,3.56664,6.42573.29191c0,0,.72993-1.16793.91799-2.39871,0,0,.02067-1.14741,1.14728-1.75205,0,0,.12499,1.62677,1.64807,2.31534.12544.06221.25044.10419.37541.08335,0,0,0-.10415-.20847-.22974-.27139-.16661-.3337-.10383-.39634-.16661-.35456-.29253-.75107-.70911-.77205-1.0433l1.04311.45887s.70928.20888.79259,1.23104c0,0,.08378.72993.47999,1.37655,0,0-2.44068-.25029-3.92183,2.482l-.18776-.31243s-.02099.89689-.58414,1.2099c0,0-.08344-.58444-.47999-.66742,0,0-.06264.91771-.70939,1.31435,0,0,.10445-.58444-.33372-.83466,0,0-.60498,1.27236-1.75256,1.23009,0,0,.20895-.43772.06279-1.06316,0,0-1.21005,1.14741-2.27402.68855,0,0,.50083-.39636.47984-1.25218,0,0-1.41863.79334-2.71189-1.14679,0,0,.35456.35467,1.481-.25059,0,0-.68827-.81352-.52163-1.56429" fill="#ed1c2e"/>
<path d="M12.31067,6.52725s1.48128.29221.29221,2.87866c0,0-.54232,2.0443.62593,2.96201,0,0,.16679.16694.3129.43798,0,0-1.46048.52165-.45902,3.19173,0,0-.95967-.31303-1.33521-.93881,0,0,.25029-.10447.35487-.58414,0,0-.77202.33417-1.37713-.47999l.70939-.47906s-.62591-.02112-1.33534-1.00192l.85553-.35439s-.91771-.16694-1.20992-1.08467h.81324s-.70909-1.27236-.52103-1.98181c0,0,.56314.50083,1.02199.54219,0,0,.43835-.64662-.16709-1.35571,0,0-.29176-.56332.06281-1.35575,0,0,.02097.12501.52163.22944,0,0,.52135,0,.83425,1.12631l.10445-.10445s-.47986-.85522-.10445-1.64762" fill="#ed1c2e"/>
<path d="M24.38989,22.04659l.91803-.08363s4.42262-.56297,4.33929-6.36199c0,0-.12529-3.35837-2.60774-4.94378-.1878-.12467-.56329-.39578-.95985-.52137-.41718-.12525-1.27253-.31238-1.96082.14642-.25054.14584-.5426.52137-.62595.79242-.06277.25029-.16676,1.00102.87637,1.85656l.37554-.47999s-.70943-.52105-.50096-1.06348c.20873-.5428.70926-.47969.75105-.50083.60496-.04197,2.62889.1256,3.71368,3.94246,0,0,.64662,2.98283-1.56461,5.29819,0,0,.35439-1.4185-1.27258-3.83771,0,0-1.43964-2.00296.54217-4.52662l-.62591-.4172s-2.52416,2.96168-.45887,5.48597c0,0,1.62738,1.98119.95965,3.27441-.14596.29223-.47986.64664-.83438.75138-.35487.08335-1.37685.31305-1.37685.31305" fill="#ed1c2e"/>
<path d="M26.76821,10.17778s1.10562-1.37651,4.48543-1.73153c0,0,.20858.93883-1.64811,1.52297,0,0,.08348.35469,1.68991-.04199,0,0-.6469,1.481-2.56623.77187,0,0-.83438-.27104-1.39768-.06216" fill="#ed1c2e"/>
<path d="M19.15358,3.94078s.66744.33355.6466,1.54349l3.00425,1.08495s.31292-.81388,1.502-1.1894c0,0-.10428-.2083-.91803-.08363,0,0-.14609-.24994-.60494-.33357,0,0-.16676.23005.04181.68889,0,0-.43802.2291-.54232.33327,0,0-.14612-.31305-.29221-.56304,0,0,.56332-.14609.56332-.60464,0,0-.25044.12469-.37554.08331,0,0,.43817-.56329-.16663-1.04296,0,0-.41767.29193-.47999.85522,0,0-.31307-.22972-.54262-.27111,0,0-.1043.29133.06277.77159,0,0-.14609.25057-.45884.29193,0,0-.33385-.12527-.45915-.54247l.25042-.02082s.25024-.12469.31271-.25026c0,0-.18776-.12497-.50062-.12497l-.02071-.08361h.0835s.02067-.75105-1.10577-.54217" fill="#ed1c2e"/>
<path d="M19.02841,18.5841l-.10443-.14644c.91818-.33355,1.1894-1.37653,1.1894-1.37653.33372-1.73125,1.29322-1.75209,1.29322-1.75209l-.12514.14644c-.64675.24994-.77205,1.41787-.77205,1.41787-.04164,1.48133-1.481,1.71075-1.481,1.71075M18.11027,18.68855l-.6466.2291-.20862-.06246.04181-.04199.29193-.06246c.77202-.43772,1.14743-1.81427,1.14743-1.81427.56345-1.31433,1.52312-1.43964,1.52312-1.43964l.08331.12532-.14609.06246c-.98035.37552-1.0848,1.43932-1.0848,1.43932-.04169,1.35573-1.00149,1.56463-1.00149,1.56463M20.0299,7.31965s.10415-.12495.16666,0l.0211.06311-.06279.02082s-.06264,0-.18759.06246c0,0-.12512.08335-.18778-.06246l.25039-.08393M29.41747,30.68261c-.12495-.29223-.25011-.66775-.25011-.66775l.95952.02114c-.87617-.02114-.93881-1.54349-.93881-1.54349-.22944-1.29325.54247-2.10709.54247-2.10709-2.50331.06279-3.10827-1.46018-3.10827-1.46018-1.16825-1.14679-1.56478-3.85885-1.56478-3.85885,0,0-.04164-.25024-.14594-.39666-.10445-.18778-.16679-.27109-.41735-.52103-.35484-.37584-1.64794-1.16795-1.81501-1.29353-.73008-.50051-1.10547-1.10547-1.10547-1.10547-.43835.54249-1.00149.68794-1.00149.68794l-.06281-.18743c2.37832-1.50152,1.43968-3.81691,1.43968-3.81691.10443-.50109.47979-1.14773.47979-1.14773,1.66893-2.23206.50066-5.42316.50066-5.42316.45884-.75077-.14609-.85522-.14609-.85522-.60494-.1256-.62595.16666-.62595.16666l-.08346-.02084-.04149-.06246-1.71088-.62548c-.56314-.31337-.83425-.23005-.83425-.23005-.04181.3342.06249.47999.06249.47999.12514.10445.27111.06246.27111.06246.62608-.16691.89717.29193.89717.29193l-.08348.10445c-.16694-.18776-.35469-.18776-.35469-.18776-.43785-.04138-.41718.2086-.41718.2086-.14614.20888-.20847-.02084-.20847-.02084l-.06266-.2089c-.45884-.10385-.37549-.72993-.37549-.72993-.79274.04194-1.54381.29223-1.54381.29223-.27134.10413-.18774.29221-.18774.29221l.22957.33355-.12544.45856c-.27109.70971.50081.73021.50081.73021h1.04326c.79261.16724.24996.70971.24996.70971.02114.89659-.50051.70883-.50051.70883-.68827-.54217-1.0638-.06221-1.0638-.06221-.22972.45884.29176.45884.29176.45884,1.0433.02082.39668.79244.39668.79244-.25057.58412-.93883.45884-.93883.45884-1.64809-.16666-1.94017.6466-1.94017.6466-.60496.6261-.52165,2.39871-.52165,2.39871-.43815-1.06352.04169-2.29424.04169-2.29424-1.50198.52163-.95965,3.31666-.95965,3.31666-.70913-1.5018-.22962-2.41949-.22962-2.41949-1.35584.18746-.95933,2.19009-.95933,2.19009l.5215,1.27212-1.39787.70907c-1.12659.6264-1.836.06309-1.836.06309-2.04413-1.89848-4.27651-.08331-4.27651-.08331,1.10545.75107,2.33634.39578,2.33634.39578-.29174.47994-1.56442,1.04324-1.56442,1.04324,2.1697.85553,2.7955-.14579,2.7955-.14579.29206.89656-.2086,1.39765-.2086,1.39765.83438.22914,1.85654-.81414,1.85654-.81414-.08335.47999-.45887.89749-.45887.89749.7719-.02082,1.6274-1.00102,1.6274-1.00102.06251.47906-.27139.83378-.27139.83378,1.06413-.16666,1.64794-1.12599,1.64794-1.12599.04181.54215-.27104.97987-.27104.97987.60494-.08301,1.04324-.58414,1.04324-.58414-1.14756-.87572-.87617-1.52234-.87617-1.52234.35452,1.398,1.56431,1.6268,1.56431,1.6268.98078-.16663,1.58576-1.77289,1.58576-1.77289.75107-1.58515,1.68991-1.41822,1.68991-1.41822-1.12661.41688-1.21009,1.12629-1.21009,1.12629-.41731,1.66848-1.04298,1.89818-1.04298,1.89818.20847.64632,1.60645,1.00102,1.60645,1.00102.35439.16694.87589.43802,1.14711.58444,2.25292,1.14681,2.46182,3.19111,2.46182,3.19111.3337,2.16957,2.02358,2.67038,2.02358,2.67038,3.31718,1.08465,3.06663,3.42113,3.06663,3.42113-.18778,3.50433-2.31569,4.81825-2.31569,4.81825l.06264.02069c.60511.18789.9805-.04108.9805-.04108.16709.49997,0,.91745,0,.91745,1.75254-.25061,2.64954-2.14856,2.64954-2.14856.45902.58433,1.12661.60442,1.12661.60442-.45887-.72989-.33387-2.25206-.33387-2.25206l.68827.43755-.3334-.81302-.12544-.52238c.25054.25117.79274.45975.79274.45975-.02082-.1464-.18763-.39668-.33389-.68857" fill="#ed1c2e"/>
<path d="M19.09079,21.73384s.91797-.45884,1.41863.54217l.45919.81356s.27122.41746.29176.52133c0,0-.16663-.39606-.91771-.62578,0,0-1.16808-.41688-1.25186-1.25128" fill="#ed1c2e"/>
<path d="M16.1911,6.94471s.06279,1.87676,1.77326,1.85656c0,0,.18774-.20892,1.27253.35437l-.06231.25026s-.39653-.43802-1.1683-.29221c0,0-1.08477.39634-1.79421-.16663,0,0-1.12674-.91771-.02097-2.00235" fill="#ed1c2e"/>
</svg>