<svg xmlns="http://www.w3.org/2000/svg" version="1.1" viewBox="0 0 205 40" aria-hidden="true" focusable="false">
  <g>
    <path d="M10.4748,25.67632s4.33944,3.56664,6.42573.29191c0,0,.72993-1.16793.91799-2.39871,0,0,.02067-1.14741,1.14728-1.75205,0,0,.12499,1.62677,1.64807,2.31534.12544.06221.25044.10419.37541.08335,0,0,0-.10415-.20847-.22974-.27139-.16661-.3337-.10383-.39634-.16661-.35456-.29253-.75107-.70911-.77205-1.0433l1.04311.45887s.70928.20888.79259,1.23104c0,0,.08378.72993.47999,1.37655,0,0-2.44068-.25029-3.92183,2.482l-.18776-.31243s-.02099.89689-.58414,1.2099c0,0-.08344-.58444-.47999-.66742,0,0-.06264.91771-.70939,1.31435,0,0,.10445-.58444-.33372-.83466,0,0-.60498,1.27236-1.75256,1.23009,0,0,.20895-.43772.06279-1.06316,0,0-1.21005,1.14741-2.27402.68855,0,0,.50083-.39636.47984-1.25218,0,0-1.41863.79334-2.71189-1.14679,0,0,.35456.35467,1.481-.25059,0,0-.68827-.81352-.52163-1.56429" fill="#ed1c2e"/>
    <path d="M12.31067,6.52725s1.48128.29221.29221,2.87866c0,0-.54232,2.0443.62593,2.96201,0,0,.16679.16694.3129.43798,0,0-1.46048.52165-.45902,3.19173,0,0-.95967-.31303-1.33521-.93881,0,0,.25029-.10447.35487-.58414,0,0-.77202.33417-1.37713-.47999l.70939-.47906s-.62591-.02112-1.33534-1.00192l.85553-.35439s-.91771-.16694-1.20992-1.08467h.81324s-.70909-1.27236-.52103-1.98181c0,0,.56314.50083,1.02199.54219,0,0,.43835-.64662-.16709-1.35571,0,0-.29176-.56332.06281-1.35575,0,0,.02097.12501.52163.22944,0,0,.52135,0,.83425,1.12631l.10445-.10445s-.47986-.85522-.10445-1.64762" fill="#ed1c2e"/>
    <path d="M24.38989,22.04659l.91803-.08363s4.42262-.56297,4.33929-6.36199c0,0-.12529-3.35837-2.60774-4.94378-.1878-.12467-.56329-.39578-.95985-.52137-.41718-.12525-1.27253-.31238-1.96082.14642-.25054.14584-.5426.52137-.62595.79242-.06277.25029-.16676,1.00102.87637,1.85656l.37554-.47999s-.70943-.52105-.50096-1.06348c.20873-.5428.70926-.47969.75105-.50083.60496-.04197,2.62889.1256,3.71368,3.94246,0,0,.64662,2.98283-1.56461,5.29819,0,0,.35439-1.4185-1.27258-3.83771,0,0-1.43964-2.00296.54217-4.52662l-.62591-.4172s-2.52416,2.96168-.45887,5.48597c0,0,1.62738,1.98119.95965,3.27441-.14596.29223-.47986.64664-.83438.75138-.35487.08335-1.37685.31305-1.37685.31305" fill="#ed1c2e"/>
    <path d="M26.76821,10.17778s1.10562-1.37651,4.48543-1.73153c0,0,.20858.93883-1.64811,1.52297,0,0,.08348.35469,1.68991-.04199,0,0-.6469,1.481-2.56623.77187,0,0-.83438-.27104-1.39768-.06216" fill="#ed1c2e"/>
    <path d="M19.15358,3.94078s.66744.33355.6466,1.54349l3.00425,1.08495s.31292-.81388,1.502-1.1894c0,0-.10428-.2083-.91803-.08363,0,0-.14609-.24994-.60494-.33357,0,0-.16676.23005.04181.68889,0,0-.43802.2291-.54232.33327,0,0-.14612-.31305-.29221-.56304,0,0,.56332-.14609.56332-.60464,0,0-.25044.12469-.37554.08331,0,0,.43817-.56329-.16663-1.04296,0,0-.41767.29193-.47999.85522,0,0-.31307-.22972-.54262-.27111,0,0-.1043.29133.06277.77159,0,0-.14609.25057-.45884.29193,0,0-.33385-.12527-.45915-.54247l.25042-.02082s.25024-.12469.31271-.25026c0,0-.18776-.12497-.50062-.12497l-.02071-.08361h.0835s.02067-.75105-1.10577-.54217" fill="#ed1c2e"/>
    <path d="M19.02841,18.5841l-.10443-.14644c.91818-.33355,1.1894-1.37653,1.1894-1.37653.33372-1.73125,1.29322-1.75209,1.29322-1.75209l-.12514.14644c-.64675.24994-.77205,1.41787-.77205,1.41787-.04164,1.48133-1.481,1.71075-1.481,1.71075M18.11027,18.68855l-.6466.2291-.20862-.06246.04181-.04199.29193-.06246c.77202-.43772,1.14743-1.81427,1.14743-1.81427.56345-1.31433,1.52312-1.43964,1.52312-1.43964l.08331.12532-.14609.06246c-.98035.37552-1.0848,1.43932-1.0848,1.43932-.04169,1.35573-1.00149,1.56463-1.00149,1.56463M20.0299,7.31965s.10415-.12495.16666,0l.0211.06311-.06279.02082s-.06264,0-.18759.06246c0,0-.12512.08335-.18778-.06246l.25039-.08393M29.41747,30.68261c-.12495-.29223-.25011-.66775-.25011-.66775l.95952.02114c-.87617-.02114-.93881-1.54349-.93881-1.54349-.22944-1.29325.54247-2.10709.54247-2.10709-2.50331.06279-3.10827-1.46018-3.10827-1.46018-1.16825-1.14679-1.56478-3.85885-1.56478-3.85885,0,0-.04164-.25024-.14594-.39666-.10445-.18778-.16679-.27109-.41735-.52103-.35484-.37584-1.64794-1.16795-1.81501-1.29353-.73008-.50051-1.10547-1.10547-1.10547-1.10547-.43835.54249-1.00149.68794-1.00149.68794l-.06281-.18743c2.37832-1.50152,1.43968-3.81691,1.43968-3.81691.10443-.50109.47979-1.14773.47979-1.14773,1.66893-2.23206.50066-5.42316.50066-5.42316.45884-.75077-.14609-.85522-.14609-.85522-.60494-.1256-.62595.16666-.62595.16666l-.08346-.02084-.04149-.06246-1.71088-.62548c-.56314-.31337-.83425-.23005-.83425-.23005-.04181.3342.06249.47999.06249.47999.12514.10445.27111.06246.27111.06246.62608-.16691.89717.29193.89717.29193l-.08348.10445c-.16694-.18776-.35469-.18776-.35469-.18776-.43785-.04138-.41718.2086-.41718.2086-.14614.20888-.20847-.02084-.20847-.02084l-.06266-.2089c-.45884-.10385-.37549-.72993-.37549-.72993-.79274.04194-1.54381.29223-1.54381.29223-.27134.10413-.18774.29221-.18774.29221l.22957.33355-.12544.45856c-.27109.70971.50081.73021.50081.73021h1.04326c.79261.16724.24996.70971.24996.70971.02114.89659-.50051.70883-.50051.70883-.68827-.54217-1.0638-.06221-1.0638-.06221-.22972.45884.29176.45884.29176.45884,1.0433.02082.39668.79244.39668.79244-.25057.58412-.93883.45884-.93883.45884-1.64809-.16666-1.94017.6466-1.94017.6466-.60496.6261-.52165,2.39871-.52165,2.39871-.43815-1.06352.04169-2.29424.04169-2.29424-1.50198.52163-.95965,3.31666-.95965,3.31666-.70913-1.5018-.22962-2.41949-.22962-2.41949-1.35584.18746-.95933,2.19009-.95933,2.19009l.5215,1.27212-1.39787.70907c-1.12659.6264-1.836.06309-1.836.06309-2.04413-1.89848-4.27651-.08331-4.27651-.08331,1.10545.75107,2.33634.39578,2.33634.39578-.29174.47994-1.56442,1.04324-1.56442,1.04324,2.1697.85553,2.7955-.14579,2.7955-.14579.29206.89656-.2086,1.39765-.2086,1.39765.83438.22914,1.85654-.81414,1.85654-.81414-.08335.47999-.45887.89749-.45887.89749.7719-.02082,1.6274-1.00102,1.6274-1.00102.06251.47906-.27139.83378-.27139.83378,1.06413-.16666,1.64794-1.12599,1.64794-1.12599.04181.54215-.27104.97987-.27104.97987.60494-.08301,1.04324-.58414,1.04324-.58414-1.14756-.87572-.87617-1.52234-.87617-1.52234.35452,1.398,1.56431,1.6268,1.56431,1.6268.98078-.16663,1.58576-1.77289,1.58576-1.77289.75107-1.58515,1.68991-1.41822,1.68991-1.41822-1.12661.41688-1.21009,1.12629-1.21009,1.12629-.41731,1.66848-1.04298,1.89818-1.04298,1.89818.20847.64632,1.60645,1.00102,1.60645,1.00102.35439.16694.87589.43802,1.14711.58444,2.25292,1.14681,2.46182,3.19111,2.46182,3.19111.3337,2.16957,2.02358,2.67038,2.02358,2.67038,3.31718,1.08465,3.06663,3.42113,3.06663,3.42113-.18778,3.50433-2.31569,4.81825-2.31569,4.81825l.06264.02069c.60511.18789.9805-.04108.9805-.04108.16709.49997,0,.91745,0,.91745,1.75254-.25061,2.64954-2.14856,2.64954-2.14856.45902.58433,1.12661.60442,1.12661.60442-.45887-.72989-.33387-2.25206-.33387-2.25206l.68827.43755-.3334-.81302-.12544-.52238c.25054.25117.79274.45975.79274.45975-.02082-.1464-.18763-.39668-.33389-.68857" fill="#ed1c2e"/>
    <path d="M19.09079,21.73384s.91797-.45884,1.41863.54217l.45919.81356s.27122.41746.29176.52133c0,0-.16663-.39606-.91771-.62578,0,0-1.16808-.41688-1.25186-1.25128" fill="#ed1c2e"/>
    <polyline points="19.82102 5.73481 19.80018 5.88061 22.22017 6.81946 22.5124 6.65252" fill="#ed1c2e"/>
    <path d="M16.1911,6.94471s.06279,1.87676,1.77326,1.85656c0,0,.18774-.20892,1.27253.35437l-.06231.25026s-.39653-.43802-1.1683-.29221c0,0-1.08477.39634-1.79421-.16663,0,0-1.12674-.91771-.02097-2.00235" fill="#ed1c2e"/>
    <polyline points="38.45919 40 39.19313 40 39.19313 0 38.45919 0" fill="#5a5b5d"/>
  </g>
  <g>
    <path d="M53.48886,10.64335c-.25407-.22207-.5673-.38596-.9295-.48584-.56052-.15807-1.24128-.15225-2.01853-.1377-.29092.00679-.53676.0097-.73701.0097h-.24826v5.40829h.24826c.18668,0,.38402.00291.59446.0097.21334.00582.46015.00873.7404.00873.43784,0,.84902-.05431,1.22237-.16098.38208-.10764.72052-.27832,1.00563-.50718.28802-.2308.51542-.52657.67688-.87956.15904-.34911.24001-.76416.24001-1.23158,0-.4519-.06837-.85047-.20268-1.18406-.1377-.34135-.33699-.62646-.59203-.8495ZM53.02192,12.72928c0,.29286-.04412.54694-.13189.75543-.08582.20559-.20122.36947-.3525.50039-.15371.13092-.34087.2308-.55712.29577-.31177.0931-.625.11831-1.11279.0931-.03394-.00097-.06691-.00291-.09794-.00388v-3.28648c.04412-.00194.0897-.00388.13528-.00485.12995-.00291.25117-.00485.36269-.00485,1.19667,0,1.75428.5256,1.75428,1.65536Z" fill="#5a5b5d"/>
    <rect x="55.12919" y="10.0295" width="1.21413" height="5.40829" fill="#5a5b5d"/>
    <polygon points="60.89677 14.36525 58.94176 14.36525 58.94176 13.18022 60.81192 13.18022 60.81192 12.1358 58.94176 12.1358 58.94176 11.07392 60.89677 11.07392 60.89677 10.0295 57.72715 10.0295 57.72715 15.43779 60.89677 15.43779 60.89677 14.36525" fill="#5a5b5d"/>
    <path d="M65.20779,13.68545l1.3882,1.75234h1.55354l-1.90847-2.31576c.07564-.01843.14934-.03976.22062-.064.21965-.07564.41457-.18425.58039-.3239.16971-.14352.30256-.31808.39566-.51979.09358-.20365.1411-.43542.1411-.68949,0-.49942-.18619-.88538-.55276-1.14624-.34135-.24438-.82671-.3685-1.44299-.3685-.29092,0-.55179.00194-.78356.00485-.23274.00388-.42281.00776-.56973.01455l-.23662.01164v5.39665h1.21461v-1.75234ZM65.22913,12.25411c-.00727,0-.01406,0-.02133-.00097v-1.19473c.0771-.00194.17068-.00388.28074-.00388.28705,0,.51057.05237.66379.15613.07903.05334.18377.15322.18377.39857,0,.20462-.06303.35299-.19977.46645-.1474.12316-.35008.18328-.61967.18328-.09843,0-.19492-.00194-.28753-.00485Z" fill="#5a5b5d"/>
    <polygon points="71.88645 14.36525 69.93144 14.36525 69.93144 13.18022 71.8016 13.18022 71.8016 12.1358 69.93144 12.1358 69.93144 11.07392 71.88645 11.07392 71.88645 10.0295 68.71683 10.0295 68.71683 15.43779 71.88645 15.43779 71.88645 14.36525" fill="#5a5b5d"/>
    <path d="M73.24216,14.81036c.24826.22692.54597.40148.88441.51882.33262.1154.70355.17455,1.10164.17455.33262,0,.6507-.02618.94551-.07855.29335-.0514.58136-.12704.85629-.22304l.16583-.05915v-2.69493h-1.21461v1.87937c-.06691.01552-.13722.02909-.21092.04073-.37044.06206-.78453.04364-1.106-.07758-.1954-.07273-.36366-.17843-.50088-.31323-.13673-.13576-.24583-.30644-.3239-.50912-.07952-.20753-.11976-.44996-.11976-.72052,0-.29286.04558-.54888.13528-.75931.0897-.2085.21092-.38402.35978-.51979.15225-.13867.32874-.24438.52609-.3142.39566-.14061.85532-.13092,1.27813-.04267.20995.04267.42524.10667.64003.19104l.28608.11055.18716-1.15691-.20462-.064c-.25117-.07952-.50621-.13867-.75786-.17455-.69725-.09891-1.42068-.06109-1.98896.1668-.36366.1474-.67688.35202-.93047.60803-.25456.25504-.45239.56148-.58912.91059-.1348.34523-.20316.72052-.20316,1.11521,0,.42766.06837.81168.20268,1.14139.13576.33553.33117.62161.58136.85047Z" fill="#5a5b5d"/>
    <rect x="78.48511" y="10.0295" width="1.21413" height="5.40829" fill="#5a5b5d"/>
    <polygon points="84.25318 14.36525 82.29768 14.36525 82.29768 13.18022 84.16784 13.18022 84.16784 12.1358 82.29768 12.1358 82.29768 11.07392 84.25318 11.07392 84.25318 10.0295 81.08356 10.0295 81.08356 15.43779 84.25318 15.43779 84.25318 14.36525" fill="#5a5b5d"/>
    <path d="M87.81216,13.05803c.21965-.07564.41457-.18425.58039-.3239.16922-.14255.30208-.31808.39566-.51882.09358-.20268.1411-.43542.1411-.69046,0-.49942-.18571-.88441-.55227-1.14624-.34135-.24438-.82671-.3685-1.44347-.3685-.29044,0-.55179.00194-.78356.00485-.23274.00388-.42281.00776-.56924.01455l-.23662.01164v5.39665h1.21413v-1.75331l1.38868,1.75331h1.55354l-1.90895-2.31576c.07564-.01843.14934-.03976.22062-.064ZM86.57961,12.25411c-.00727,0-.01406,0-.02133-.00097v-1.19473c.0771-.00194.17068-.00388.28074-.00388.28705,0,.51057.05237.66428.15613.07855.05334.18328.15225.18328.39857,0,.20462-.06303.35299-.19928.46645-.1988.16583-.56391.19007-.90769.17843Z" fill="#5a5b5d"/>
    <path d="M93.47743,13.28107c0,.35008-.08485.63325-.25213.84174-.15419.19201-.44318.28899-.85968.28899-.3719,0-.65797-.0834-.8495-.24632-.18328-.1571-.27201-.40923-.27201-.77095v-3.37473h-1.21413v3.47849c0,.64585.20219,1.15109.60027,1.49923.38887.34232.9552.51591,1.683.51591.40729,0,.76416-.05915,1.06091-.17649.2982-.11637.55033-.27832.74962-.48197s.3462-.44511.43687-.71567c.08679-.25989.13092-.53627.13092-.82041v-3.29909h-1.21413v3.26127Z" fill="#5a5b5d"/>
    <path d="M100.70934,10.0295h-1.20588l.01018,2.55335c0,.28608.00145.54112.00485.76804-.03782-.06012-.07661-.11831-.1154-.17649l-2.05684-3.1449h-1.31789v5.40829h1.19667l-.01067-3.02562c0-.10085-.00048-.19686-.00097-.28705.02764.04364.05528.08728.08388.12995l2.08496,3.18272h1.3271v-5.40829Z" fill="#5a5b5d"/>
    <path d="M102.35743,14.81036c.24923.22789.54694.40245.88538.51882.33165.1154.7021.17455,1.10067.17455.33262,0,.6507-.02618.94551-.07855.29286-.0514.58088-.12704.85629-.22304l.16583-.05915v-2.69493h-1.21413v1.87937c-.06691.01552-.1377.02909-.21044.04073-.37335.06206-.78453.04267-1.10745-.07758-.19395-.07273-.36269-.17746-.50039-.3142-.13673-.1348-.24535-.30547-.32293-.50815-.07952-.20656-.12025-.44899-.12025-.72052,0-.29383.04558-.54985.13576-.75931s.21044-.38402.35978-.51979c.15225-.13867.32874-.24438.52463-.3142.3976-.14255.85629-.13189,1.2791-.04267.21044.04267.42572.10764.64003.19104l.28608.11055.18716-1.15691-.20462-.064c-.2502-.07952-.50524-.1377-.75737-.17455-.70113-.09988-1.42262-.06206-1.98896.1668-.36366.1474-.67688.35202-.93193.60803-.25504.25698-.45239.56342-.58815.91059-.1348.34523-.20316.72052-.20316,1.11521,0,.42863.06837.81265.20219,1.14139.13528.33456.3302.62064.58136.85047Z" fill="#5a5b5d"/>
    <path d="M53.48837,21.57436c-.25553-.22207-.56827-.38596-.92999-.48681-.56197-.15516-1.24467-.15322-2.01659-.13576-.29141.00582-.53773.00873-.73798.00873h-.24826v5.40829h.24826c.18716,0,.38499.00388.59349.0097.21334.00679.46063.0097.74137.0097.43784,0,.84902-.05431,1.22285-.16098.38402-.10958.72246-.28026,1.00563-.50815.28802-.23177.51542-.52754.6764-.87956.15904-.34814.24001-.76222.24001-1.23158,0-.4519-.06837-.85047-.20268-1.18406-.13673-.33941-.33602-.62452-.59252-.8495ZM53.02192,23.66029c0,.29286-.04461.54791-.13189.7564-.08534.20365-.20413.37141-.35299.49942-.15371.13286-.33602.22886-.55761.29577-.31129.09407-.63713.11443-1.10988.09407-.03491-.00097-.06837-.00291-.09988-.00485v-3.28648c.04412-.00194.0897-.00388.13528-.00485.12995-.00291.25117-.00485.36269-.00485,1.19667,0,1.75428.5256,1.75428,1.65536Z" fill="#5a5b5d"/>
    <polygon points="55.12919 26.3688 58.29881 26.3688 58.29881 25.29626 56.34331 25.29626 56.34331 24.11123 58.21348 24.11123 58.21348 23.06778 56.34331 23.06778 56.34331 22.00493 58.29881 22.00493 58.29881 20.96051 55.12919 20.96051 55.12919 26.3688" fill="#5a5b5d"/>
    <path d="M61.90774,23.3907c-.19686-.10958-.4136-.19783-.64391-.26183-.2051-.05818-.39372-.12122-.56439-.1891-.15564-.06303-.28656-.1377-.38935-.22207-.04315-.03588-.0931-.0931-.0931-.22401,0-.15516.05625-.27153.17843-.3656.19346-.15128.59543-.20753,1.17049-.12122.17795.02715.33214.05818.46257.09407l.29529.08049.06837-1.15012-.20704-.04558c-.15419-.03394-.33068-.05915-.52851-.07564-.19346-.01649-.36899-.02424-.52609-.02424-.65894,0-1.18406.14934-1.56033.44415-.39566.30935-.59591.72925-.59591,1.24904,0,.31905.07758.58282.22983.78259.14013.18522.32002.3365.53385.4519.19395.10376.40632.19104.63082.25892.20171.06109.39178.1251.57021.19298.15467.05915.28171.13092.3782.21528.04364.03782.09407.09891.09407.23274,0,.1154-.0223.20947-.06643.27929-.04946.07855-.11249.14352-.18959.19298-.08194.05334-.17746.09213-.28511.11734-.30741.07273-.64197.04461-.94066-.01261-.18668-.03491-.34766-.08049-.47954-.1348l-.32923-.1377-.05091,1.25292.20219.04558c.14498.032.32099.06206.52803.08825.20898.02618.41651.03976.62209.03976.2948,0,.57894-.03976.84368-.11831.27104-.07952.51154-.19492.71616-.34523.20801-.15419.37578-.34426.49845-.56536.12752-.22886.1925-.49069.1925-.77774,0-.31905-.07903-.58476-.23516-.78744-.14255-.18716-.3205-.34135-.52997-.45966Z" fill="#5a5b5d"/>
    <path d="M68.67852,25.25844c-.06691.01552-.13722.02909-.21092.04073-.37044.06206-.78404.04267-1.10697-.07758-.19395-.07176-.3622-.17649-.49991-.31226-.13722-.13576-.24632-.30741-.3239-.51009-.07952-.20656-.11976-.44802-.11976-.71955,0-.29286.04558-.54888.13576-.76028.08922-.2085.20995-.38305.35929-.51979.15322-.13964.32487-.24244.52463-.3142.39857-.14061.84708-.13189,1.27861-.04267.21286.04461.42814.10861.64052.19201l.28608.11055.18765-1.15691-.20462-.06497c-.24729-.07855-.50233-.13673-.75689-.17359-.68998-.10279-1.42262-.06497-1.98993.1668-.36366.14643-.67688.35105-.93047.60706-.25407.25504-.45239.56148-.58912.91156-.1348.34523-.20316.72052-.20316,1.11521,0,.42669.06788.81071.20219,1.14236.13722.33553.33311.62161.58185.8495.24826.22692.54597.40148.8849.51882.33456.1154.70549.17455,1.10115.17455.33214,0,.65022-.02618.94502-.07855.29092-.0514.57894-.12704.85629-.22498l.16583-.05818v-2.69493h-1.21413v1.87937Z" fill="#5a5b5d"/>
    <path d="M73.65043,23.98904c.21965-.07564.41457-.18425.57943-.32293.16874-.14158.30208-.31711.39663-.51979.09358-.20268.1411-.43542.1411-.69046,0-.49748-.18571-.88344-.55276-1.14624-.34523-.24729-.81701-.36753-1.44299-.36753-.29092,0-.55179.00194-.7821.00485-.23274.00291-.42281.00776-.56924.01358l-.23807.0097v5.39859h1.21413v-1.75331l1.3882,1.75331h1.55451l-1.90992-2.31576c.07661-.01746.15031-.03879.2211-.064ZM72.39654,23.18415v-1.19376c.07661-.00194.17068-.00388.28074-.00388.28802,0,.51154.05237.66331.15516.07903.05334.18425.15322.18425.39954,0,.20462-.06352.35202-.19831.46548-.20219.16777-.5547.1891-.91108.17843-.0063,0-.01261,0-.01891-.00097Z" fill="#5a5b5d"/>
    <path d="M78.09964,20.88487c-.36123,0-.70986.06497-1.03521.19298-.32632.12801-.61531.31711-.8592.56052-.24195.24147-.43784.54015-.58233.88732-.14449.3462-.21771.74574-.21771,1.18697,0,.38208.04946.73895.1474,1.06285.10085.33359.2565.6284.46257.87665.21189.25407.48342.4519.80683.58864.31856.1348.69773.20365,1.12685.20365.37529,0,.73071-.06206,1.05606-.18619.33068-.1251.62209-.31032.86502-.55082.24341-.23953.43881-.53918.58088-.89217.14013-.34814.21141-.74865.21141-1.18794,0-.8689-.22983-1.54966-.6827-2.0229-.45578-.47712-1.08854-.71955-1.87986-.71955ZM79.40056,23.69811c0,.27832-.03782.52366-.11249.73022-.0737.20268-.17116.36657-.29771.50136-.12316.13189-.26474.22789-.43396.29383-.38354.15128-.89799.12607-1.18697-.02715-.16243-.08534-.29674-.20074-.39905-.34523-.10619-.14837-.18328-.32584-.22983-.52657-.04897-.21431-.0737-.44705-.0737-.6924,0-.27735.03927-.52269.11589-.72731.07613-.20171.17892-.37335.30499-.51106.12364-.1348.26765-.23662.42863-.30353.16292-.06885.3365-.10376.51736-.10376.43202,0,.75834.1348.99787.41214.24486.2822.36899.71955.36899,1.29946Z" fill="#5a5b5d"/>
    <path d="M84.07281,23.3907c-.19686-.10958-.4136-.19783-.64391-.26183-.2051-.05818-.39372-.12122-.56439-.1891-.15613-.064-.28705-.1377-.38887-.22207-.04364-.03588-.09358-.0931-.09358-.22401,0-.15516.05625-.27153.17843-.3656.19395-.15128.59446-.20753,1.17097-.12122.17795.02715.33165.05818.46209.09407l.29529.08049.06837-1.15012-.20704-.04558c-.15419-.03394-.33068-.05915-.52851-.07564-.19346-.01649-.3685-.02424-.52609-.02424-.65894,0-1.18406.14934-1.56033.44415-.39566.30935-.59591.72925-.59591,1.24904,0,.31905.07758.58282.22983.78259.14013.18425.31953.3365.53385.4519.19395.10376.40632.19104.63131.25892.20171.06109.39129.1251.56973.19298.15467.05915.28171.13092.37869.21528.04364.03782.09358.09891.09358.23274,0,.1154-.0223.20947-.06546.27832-.04994.07952-.11346.14449-.19056.19395-.08194.05334-.17746.09213-.28511.11734-.3079.07273-.64246.04461-.94066-.01261-.18668-.03491-.34766-.08049-.47906-.1348l-.32874-.1377-.05188,1.25292.20219.04558c.14498.032.32099.06206.52851.08825.20898.02618.41602.03976.62161.03976.2948,0,.57894-.03976.84368-.11831.27104-.07952.51154-.19492.71616-.34523.20753-.15419.37529-.34426.49942-.56633.12704-.22886.19153-.48972.19153-.77677,0-.31905-.07903-.58476-.23516-.78744-.14255-.18716-.3205-.34135-.52997-.45966Z" fill="#5a5b5d"/>
    <path d="M88.35231,23.3907c-.19637-.10861-.41311-.19783-.64391-.26183-.2051-.05818-.39372-.12122-.56439-.1891-.15613-.064-.28705-.1377-.38887-.22207-.04364-.03588-.09358-.0931-.09358-.22401,0-.15516.05625-.27153.17843-.3656.19443-.15128.59494-.20753,1.17097-.12122.17795.02715.33165.05818.46209.09407l.29529.08049.06837-1.15012-.20704-.04558c-.15419-.03394-.33068-.05915-.52851-.07564-.19346-.01649-.3685-.02424-.52609-.02424-.65943,0-1.18455.14934-1.55984.44415-.39566.30935-.5964.72925-.5964,1.24904,0,.31905.07758.58282.22983.78259.14013.18425.31953.3365.53385.4519.19346.10279.40584.19007.63131.25892.20171.06109.39129.1251.56973.19298.15467.05915.28171.13092.37869.21528.04364.03782.09358.09891.09358.23274,0,.1154-.0223.20947-.06546.27832-.04994.07952-.11346.14449-.19056.19395-.08146.05334-.17698.09213-.28511.11734-.30693.07273-.64197.04461-.94066-.01261-.18571-.03491-.34717-.08049-.47906-.1348l-.32874-.1377-.05188,1.25292.20219.04558c.14498.032.32099.06206.52851.08825.20898.02618.41651.03976.62161.03976.29432,0,.57894-.03976.84465-.11831.27056-.07952.51106-.19589.71471-.34523.20753-.15322.37578-.34329.49942-.56536.12752-.22886.19201-.48972.19201-.77774,0-.31905-.07903-.58476-.23516-.78744-.14255-.18716-.3205-.34135-.52997-.45966Z" fill="#5a5b5d"/>
    <polygon points="93.47646 23.03869 91.32847 23.03869 91.32847 20.97021 90.11386 20.97021 90.11386 26.3688 91.32847 26.3688 91.32847 24.14032 93.47646 24.14032 93.47646 26.3688 94.69108 26.3688 94.69108 20.97021 93.47646 20.97021 93.47646 23.03869" fill="#5a5b5d"/>
    <polygon points="96.07491 26.3688 99.24453 26.3688 99.24453 25.29626 97.28952 25.29626 97.28952 24.11123 99.15968 24.11123 99.15968 23.06778 97.28952 23.06778 97.28952 22.00493 99.24453 22.00493 99.24453 20.96051 96.07491 20.96051 96.07491 26.3688" fill="#5a5b5d"/>
    <path d="M102.58241,24.05304c.07661-.01746.15031-.03879.2211-.064.22013-.07564.41505-.18425.57894-.32293.16874-.14061.30256-.31614.39663-.51882.09407-.20074.14158-.43348.14158-.69143,0-.49845-.18619-.88441-.55276-1.14624-.34426-.24729-.81653-.36753-1.44299-.36753-.29044,0-.55179.00194-.7821.00485-.23274.00291-.42233.00776-.56924.01358l-.23807.0097v5.39859h1.21461v-1.75234l1.3882,1.75234h1.55354l-1.76009-2.13248-.14934-.18328ZM101.55011,21.99039c.0771-.00194.17068-.00388.28074-.00388.28802,0,.51106.05237.66331.15516.07855.05334.18425.15322.18425.39954,0,.20462-.06303.35202-.1988.46548-.19977.16777-.55712.18716-.91108.17843h-.01843v-1.19473Z" fill="#5a5b5d"/>
    <path d="M106.24903,25.2148c.00194-.00291.00485-.00582.00679-.00873l2.39819-3.36988v-.87568h-3.93524v1.12006h1.71258c.24826,0,.46451-.00097.64876-.00388l-2.43698,3.43485v.85726h4.0487v-1.15691h-1.72227c-.26377,0-.50427.00097-.72052.00291Z" fill="#5a5b5d"/>
    <path d="M111.86291,20.88487c-.36075,0-.70889.06497-1.03569.19298-.32584.12801-.61482.31614-.85823.56052-.24147.23953-.43736.53821-.58282.88829-.14449.34523-.21722.74477-.21722,1.186,0,.38208.04946.73895.1474,1.06285.09988.33262.25601.62743.46257.87665.21141.2531.48294.4519.80683.58864.31905.1348.69822.20365,1.12685.20365.37626,0,.73119-.06206,1.05606-.18619.32971-.1251.62161-.31032.86599-.55082.24341-.23953.43833-.54015.57991-.89217.13964-.34911.21141-.74962.21141-1.18794,0-.8689-.22983-1.54966-.6827-2.0229-.45578-.47712-1.08806-.71955-1.88034-.71955ZM113.16431,23.69811c0,.27832-.03782.52463-.11346.73022-.07176.19977-.17165.3685-.29674.50136-.12413.13189-.26571.22789-.43445.29383-.38111.15128-.89799.1251-1.18697-.02715-.16389-.08534-.2948-.1988-.39954-.34523-.10473-.1474-.18231-.32487-.22886-.52657-.04946-.21334-.0737-.44608-.0737-.6924,0-.27832.03879-.52366.1154-.72731.07661-.20171.1794-.37335.3045-.51106.12413-.1348.26862-.23662.4296-.30353.16195-.06885.3365-.10376.51688-.10376.43154,0,.75834.1348.99787.41117.24535.28317.36947.72052.36947,1.30043Z" fill="#5a5b5d"/>
    <path d="M118.32241,25.25844c-.06691.01552-.13673.02909-.21044.04073-.37432.06206-.78356.04267-1.10745-.07758-.19395-.07176-.36172-.17649-.50039-.31323s-.24535-.30256-.3239-.50815c-.07952-.2085-.11928-.45093-.11928-.72052,0-.29383.04558-.54888.1348-.76028.08922-.20753.21044-.38305.36075-.51979.15225-.13964.32487-.24244.52463-.3142.39954-.14061.84465-.13189,1.27813-.04267.21238.04461.42863.10861.64003.19104l.28608.11249.18813-1.15788-.20462-.06497c-.24729-.07855-.50233-.13673-.75737-.17359-.68755-.10085-1.42165-.064-1.98896.1668-.36269.14643-.67688.35105-.93193.60803s-.45287.56342-.58767.91059c-.13576.34523-.20365.72052-.20365,1.11521,0,.42766.06788.81168.20268,1.14139.13576.33456.33068.62064.58088.85047.24923.22692.54694.40148.88441.51882.33553.1154.70598.17455,1.10164.17455.33165,0,.64973-.02618.94454-.07855.29092-.0514.57894-.12704.85726-.22401l.16583-.05915v-2.69493h-1.21413v1.87937Z" fill="#5a5b5d"/>
    <polygon points="120.05147 22.06215 121.51579 22.06215 121.51579 26.3688 122.72992 26.3688 122.72992 22.06215 124.21266 22.06215 124.21266 20.96051 120.05147 20.96051 120.05147 22.06215" fill="#5a5b5d"/>
    <path d="M128.23227,24.21305c0,.35396-.08243.6284-.2531.84077-.15419.19201-.44318.28995-.8592.28995-.37141,0-.65652-.0834-.8495-.24826-.18231-.15613-.27153-.40729-.27153-.76901v-3.37473h-1.21413v3.47849c0,.64488.20171,1.14915.60027,1.49923.38887.34135.9552.51494,1.68251.51494.40923,0,.7661-.05915,1.06188-.17552.29868-.11734.55082-.27929.74865-.48197.20074-.20656.34814-.44802.43736-.71664.08728-.26086.13092-.53627.13092-.81944v-3.29909h-1.21413v3.26127Z" fill="#5a5b5d"/>
    <path d="M135.03991,20.96051l-1.19376,3.37279-.03006.09116c-.01552-.04364-.03103-.08825-.04752-.13189l-1.14333-3.33206h-1.27813l-.81168,5.40829h1.22382l.39663-3.06732c.00194-.01552.00388-.03006.00582-.04461l1.06285,3.11193h1.13849l1.09-3.14878.00873.064.43639,3.08477h1.25776l-.79035-5.40829h-1.32565Z" fill="#5a5b5d"/>
    <path d="M140.81089,23.3907c-.19686-.10861-.41311-.19686-.64391-.26183-.20462-.05818-.39372-.12122-.56439-.1891-.15613-.064-.28705-.13867-.38887-.2211-.04364-.03685-.09407-.09504-.09407-.22498,0-.15516.05625-.27056.1794-.3656.19201-.15225.59155-.20947,1.16952-.12122.17843.02715.33262.05818.46354.09407l.2948.08049.06885-1.15012-.20753-.04558c-.15419-.03394-.33068-.05915-.52851-.07564-.19395-.01649-.36947-.02424-.52657-.02424-.65943,0-1.18406.14934-1.56033.44415-.39469.30935-.59543.72925-.59543,1.24904,0,.31808.07758.58185.22983.78162.13964.18522.31905.33747.53433.45287.19298.10376.40536.19007.63034.25892.20268.06109.39178.1251.57021.19395.15516.05818.2822.12995.3782.21431.04364.03782.09407.09891.09407.23274,0,.1154-.0223.20947-.06497.27735-.05043.08049-.11443.14546-.19104.19492-.08146.05334-.17649.09213-.28511.11734-.30644.07273-.64197.04461-.94066-.01261-.18619-.03491-.34814-.08049-.48003-.1348l-.32874-.1377-.05043,1.25292.20171.04558c.14546.032.32099.06206.52851.08825.20947.02618.41602.03976.62161.03976.29383,0,.57797-.03976.84465-.11831.27056-.07952.51106-.19589.71471-.34523.2085-.15419.37626-.34426.49845-.56536.12801-.22789.19298-.48972.19298-.77774,0-.32002-.07952-.58573-.23565-.78841-.14255-.18716-.32099-.34135-.52948-.45869Z" fill="#5a5b5d"/>
    <polygon points="145.79249 20.96051 144.57837 20.96051 144.57837 26.3688 147.61562 26.3688 147.61562 25.26814 145.79249 25.26814 145.79249 20.96051" fill="#5a5b5d"/>
    <path d="M151.66238,24.21305c0,.35396-.08243.62937-.25213.84077-.15419.19201-.44318.28995-.8592.28995-.37141,0-.65749-.0834-.8495-.24826-.18231-.15613-.27153-.40729-.27153-.76901v-3.37473h-1.2151v3.47849c0,.64391.20171,1.14818.60027,1.5002.38984.34135.95617.51397,1.68348.51397.40923,0,.7661-.05915,1.06188-.17552.29965-.11831.55179-.28026.74865-.48197.1988-.20462.3462-.44511.43736-.71664.08728-.26086.13092-.53627.13092-.81944v-3.29909h-1.2151v3.26127Z" fill="#5a5b5d"/>
    <polygon points="158.93453 20.96051 157.47118 20.96051 156.20275 22.70897 154.96923 20.96051 153.43121 20.96051 155.43568 23.67096 153.34102 26.3688 154.86352 26.3688 156.15232 24.5738 157.43239 26.3688 159.02569 26.3688 156.93685 23.63508 158.93453 20.96051" fill="#5a5b5d"/>
    <polygon points="159.55129 26.3688 162.7214 26.3688 162.7214 25.29626 160.76542 25.29626 160.76542 24.11123 162.63606 24.11123 162.63606 23.06778 160.76542 23.06778 160.76542 22.00493 162.7214 22.00493 162.7214 20.96051 159.55129 20.96051 159.55129 26.3688" fill="#5a5b5d"/>
    <path d="M168.06957,20.96051l-1.19376,3.37182c-.0097.03103-.02036.06109-.03006.09116-.01552-.04364-.03103-.08728-.04752-.13092l-1.14333-3.33206h-1.2791l-.81168,5.40829h1.22479l.39566-3.06732c.00194-.01552.00388-.03006.00582-.04461l1.06285,3.11193h1.13849l1.09-3.14878.00873.064.43639,3.08477h1.25776l-.79035-5.40829h-1.32468Z" fill="#5a5b5d"/>
    <path d="M174.48058,23.4741c.10085-.07758.1891-.16389.26474-.25989.1891-.23953.28511-.52366.28511-.84271,0-.42669-.15807-.77871-.47033-1.04442-.3045-.25892-.77289-.38499-1.43135-.38499-.32971,0-.62646.00291-.88926.0097-.25892.00582-.48197.00873-.66913.00873h-.24826v5.40247l.24147.00582c.26668.00679.51591.01164.74962.01455.23468.00291.43057.00485.58864.00485.44415,0,.80101-.05528,1.09194-.16874.29189-.11346.52463-.26086.69337-.43736.17068-.17746.29092-.37432.3559-.58476.06012-.19686.09116-.38208.09116-.54985,0-.32681-.09891-.61773-.29383-.86502-.09504-.12316-.21528-.22595-.35978-.30838ZM172.53623,24.08311h.21431c.18328,0,.35299.01164.51203.03491.14061.02133.26377.05818.36463.11055.08922.04655.15419.10279.19977.17359.04267.06594.064.15613.064.26959,0,.19977-.06497.35202-.20559.47712-.14449.12898-.39566.19492-.74574.19492-.14255,0-.26377-.00485-.36657-.01358-.01261-.00097-.02521-.00194-.03685-.00291v-1.24419ZM172.73212,23.0862h-.19589v-1.09873c.02909-.00097.05818-.00097.08728-.00097h.35396c.46645,0,.62161.09794.66719.14061.09697.09019.14255.1988.14255.34329,0,.20947-.06982.34523-.22595.44124-.1891.1154-.46839.17455-.82914.17455Z" fill="#5a5b5d"/>
    <path d="M179.64449,24.21305c0,.35396-.08243.6284-.2531.84077-.15419.19201-.44318.28995-.8592.28995-.37141,0-.65652-.0834-.8495-.24826-.18231-.15613-.27153-.40729-.27153-.76901v-3.37473h-1.21413v3.47849c0,.64488.20171,1.14915.60027,1.49923.38887.34135.9552.51494,1.68251.51494.4102,0,.76707-.05915,1.06188-.17552.29868-.11734.55082-.27929.74865-.48197.20074-.20656.34814-.44802.43736-.71664.08728-.26086.13092-.53627.13092-.81944v-3.29909h-1.21413v3.26127Z" fill="#5a5b5d"/>
    <path d="M184.66392,23.98904c.22013-.07564.41505-.18425.57991-.32293.16874-.14255.30256-.31711.39566-.51979.0931-.20171.14061-.43348.14061-.69046,0-.49845-.18522-.88344-.55179-1.14624-.34523-.24729-.8175-.36753-1.44396-.36753-.28995,0-.55082.00194-.78162.00485-.23274.00291-.42184.00776-.56924.01358l-.23856.0097v5.39859h1.2151v-1.75234l1.38771,1.75234h1.55354l-1.90847-2.31479c.07564-.01843.14934-.03976.2211-.06497ZM183.42846,23.18512h-.01843v-1.19473c.07758-.00194.17068-.00388.28026-.00388.28802,0,.51203.05237.66331.15516.07855.05334.18425.15322.18425.39954,0,.20462-.06303.35202-.1988.46548-.1988.1668-.55567.1891-.91059.17843Z" fill="#5a5b5d"/>
    <path d="M189.92287,23.37907v1.87937c-.06691.01552-.13673.02909-.21044.04073-.37335.06012-.78453.04267-1.10745-.07758-.19395-.07176-.36269-.17649-.50039-.31226-.13673-.13576-.24632-.30741-.3239-.51009-.07952-.20656-.12025-.44899-.12025-.71955,0-.29189.04558-.54791.13576-.76028.08922-.20753.21044-.38305.36075-.51979.14934-.13673.32584-.24244.52463-.3142.39857-.14061.84465-.13189,1.27813-.04267.21238.04461.42863.10861.64003.19104l.28608.11249.18716-1.15788-.20462-.06497c-.24535-.07855-.50039-.13673-.7564-.17359-.69046-.10085-1.42165-.064-1.98993.1668-.36269.14643-.67592.35105-.92999.60706-.25504.25601-.45287.56245-.58864.91156-.13576.34523-.20365.72052-.20365,1.11521,0,.42669.06788.81071.20171,1.14236.13673.33456.33262.62064.58185.8495.24923.22692.54694.40148.88441.51882.33553.1154.70598.17455,1.10164.17455.33165,0,.64973-.02618.94454-.07855.29092-.0514.57894-.12704.85726-.22401l.16583-.05915v-2.69493h-1.21413Z" fill="#5a5b5d"/>
  </g>
</svg>